<svg fill="none" height="1296" viewBox="0 0 1923 1296" width="1923" xmlns="http://www.w3.org/2000/svg" xmlns:xlink="http://www.w3.org/1999/xlink"><filter id="a" color-interpolation-filters="sRGB" filterUnits="userSpaceOnUse" height="368.737" width="600.216" x="710.151" y="577.651"><feFlood flood-opacity="0" result="BackgroundImageFix"/><feBlend in="SourceGraphic" in2="BackgroundImageFix" mode="normal" result="shape"/><feGaussianBlur result="effect1_foregroundBlur_625_167" stdDeviation="10"/></filter><filter id="b" color-interpolation-filters="sRGB" filterUnits="userSpaceOnUse" height="592" width="491" x="327.5" y="193"><feFlood flood-opacity="0" result="BackgroundImageFix"/><feBlend in="SourceGraphic" in2="BackgroundImageFix" mode="normal" result="shape"/><feGaussianBlur result="effect1_foregroundBlur_625_167" stdDeviation="3"/></filter><filter id="c" color-interpolation-filters="sRGB" filterUnits="userSpaceOnUse" height="42" width="33" x="678.5" y="641"><feFlood flood-opacity="0" result="BackgroundImageFix"/><feColorMatrix in="SourceAlpha" result="hardAlpha" type="matrix" values="0 0 0 0 0 0 0 0 0 0 0 0 0 0 0 0 0 0 127 0"/><feOffset dy="4"/><feGaussianBlur stdDeviation="5"/><feColorMatrix type="matrix" values="0 0 0 0 0.960784 0 0 0 0 0.650981 0 0 0 0 0.137255 0 0 0 0.21 0"/><feBlend in2="BackgroundImageFix" mode="normal" result="effect1_dropShadow_625_167"/><feBlend in="SourceGraphic" in2="effect1_dropShadow_625_167" mode="normal" result="shape"/></filter><linearGradient id="d" gradientUnits="userSpaceOnUse" x1="1532.54" x2="1578.28" y1="436.976" y2="436.976"><stop offset="0" stop-color="#aac1d3"/><stop offset="1" stop-color="#bdd4e6"/></linearGradient><linearGradient id="e" gradientUnits="userSpaceOnUse" x1="1297.8" x2="1297.8" y1="947.314" y2="625.867"><stop offset="0" stop-color="#eff4f8"/><stop offset="1" stop-color="#dbe1e6"/></linearGradient><linearGradient id="f"><stop offset="0" stop-color="#e6eef3"/><stop offset=".992157" stop-color="#f2f6f9"/></linearGradient><linearGradient id="g" gradientUnits="userSpaceOnUse" x1="1047.29" x2="1515.75" xlink:href="#f" y1="1285.31" y2="1285.31"/><linearGradient id="h" gradientUnits="userSpaceOnUse" x1="1047.18" x2="1468.99" xlink:href="#f" y1="1234.47" y2="1234.47"/><linearGradient id="i" gradientUnits="userSpaceOnUse" x1="1047.29" x2="1452.55" xlink:href="#f" y1="1180.45" y2="1180.45"/><linearGradient id="j" gradientUnits="userSpaceOnUse" x1="1047.29" x2="1495.6" xlink:href="#f" y1="566.443" y2="566.443"/><linearGradient id="k" gradientUnits="userSpaceOnUse" x1="1047.39" x2="1489.56" xlink:href="#f" y1="515.597" y2="515.597"/><linearGradient id="l" gradientUnits="userSpaceOnUse" x1="508.406" x2="955.313" y1="271.032" y2="715"><stop offset="0" stop-opacity="0"/><stop offset="1"/></linearGradient><linearGradient id="m"><stop offset="0" stop-color="#f7fafd"/><stop offset="1" stop-color="#fff"/></linearGradient><linearGradient id="n" gradientUnits="userSpaceOnUse" x1="808.79" x2="812.681" xlink:href="#m" y1="508.297" y2="507.181"/><linearGradient id="o" gradientUnits="userSpaceOnUse" x1="623.5" x2="644.016" xlink:href="#m" y1="701" y2="681.94"/><linearGradient id="p" gradientUnits="userSpaceOnUse" x1="676.5" x2="1229.5" y1="819.499" y2="828.499"><stop offset="0" stop-color="#e7eff4"/><stop offset="1" stop-color="#d6e0e8"/></linearGradient><linearGradient id="q" gradientUnits="userSpaceOnUse" x1="605.5" x2="855.5" y1="536" y2="631"><stop offset="0" stop-color="#ffebb4"/><stop offset="1" stop-color="#fee08e"/></linearGradient><linearGradient id="r" gradientUnits="userSpaceOnUse" x1="678.5" x2="821" y1="478" y2="696"><stop offset="0" stop-color="#ffe08f"/><stop offset="1" stop-color="#f5a623" stop-opacity="0"/></linearGradient><linearGradient id="s" gradientUnits="userSpaceOnUse" x1="668.5" x2="680" y1="842.499" y2="842.999"><stop offset="0" stop-color="#d7dce1"/><stop offset="1" stop-color="#d7dce1" stop-opacity="0"/></linearGradient><linearGradient id="t" gradientUnits="userSpaceOnUse" x1="707.48" x2="1029.49" xlink:href="#f" y1="802.514" y2="802.514"/><linearGradient id="u" gradientUnits="userSpaceOnUse" x1="404.263" x2="444.017" xlink:href="#m" y1="325.041" y2="325.041"/><linearGradient id="v" gradientUnits="userSpaceOnUse" x1="765.696" x2="755.006" y1="241.257" y2="384.525"><stop offset="0"/><stop offset="1" stop-color="#20344c"/></linearGradient><linearGradient id="w" gradientUnits="userSpaceOnUse" x1="404.617" x2="429.475" xlink:href="#m" y1="519.356" y2="512.728"/><linearGradient id="x" gradientUnits="userSpaceOnUse" x1="542.94" x2="543.979" xlink:href="#m" y1="643.394" y2="639.516"/><linearGradient id="y" gradientUnits="userSpaceOnUse" x1="387.916" x2="396.681" y1="386.923" y2="413.762"><stop offset="0" stop-color="#fcfdff"/><stop offset="1" stop-color="#f7fafd"/></linearGradient><mask id="z" height="1296" maskUnits="userSpaceOnUse" width="1463" x="230" y="0"><path d="m1692.5 0h-1462v1296h1462z" fill="#fff"/></mask><mask id="A" height="64" maskUnits="userSpaceOnUse" width="38" x="555" y="337"><path d="m574 401c10.217 0 18.5-14.327 18.5-32s-8.283-32-18.5-32-18.5 14.327-18.5 32 8.283 32 18.5 32z" fill="#fff"/></mask><mask id="B" height="64" maskUnits="userSpaceOnUse" width="38" x="655" y="337"><path d="m674 401c10.217 0 18.5-14.327 18.5-32s-8.283-32-18.5-32-18.5 14.327-18.5 32 8.283 32 18.5 32z" fill="#fff"/></mask><g mask="url(#z)"><path d="m1582.24 384.867-.04-.001h-.04-565.21c-11.69 0-20.913 2.903-27.201 9.148-6.292 6.249-9.219 15.421-9.219 27.041v1211.945c0 11.65 2.926 20.85 9.216 27.11 6.288 6.27 15.514 9.18 27.204 9.18h565.21.03.03c11.18-.26 20-3.32 26-9.59 5.99-6.26 8.78-15.31 8.78-26.7v-1211.945c0-11.297-2.79-20.283-8.78-26.522-6-6.246-14.81-9.337-25.98-9.666z" fill="#f7fafd" stroke="#f0f4f9" stroke-width="5"/><path d="m1040.4 473.583c-16.1 0-24.14 7.947-24.14 23.842v83.553c0 15.895 8.04 23.842 24.14 23.842h11.12 78.14.74 24.25 86.93.84 14.83 96.14 111.92 90c16.09 0 24.14-7.947 24.14-23.842v-83.553c0-15.895-8.05-23.842-24.14-23.842h-298.06z" fill="#fff"/><path d="m1039.93 998.013c-16.09 0-24.14 7.947-24.14 23.847v249.6c0 15.9 8.05 23.84 24.14 23.84h11.12 78.14.74 24.25 86.93.85 14.82 96.14 111.92 90c16.09 0 24.14-7.94 24.14-23.84v-249.6c0-15.9-8.05-23.847-24.14-23.847h-298.06z" fill="#fff"/><path d="m1549.59 437.293c0 1.477.6 2.813 1.8 4.008 1.13 1.126 2.51 1.688 4.13 1.688s2.96-.562 4.02-1.688c1.27-1.195 1.91-2.531 1.91-4.008v-.211c0-1.618-.64-2.989-1.91-4.115-1.06-1.195-2.4-1.793-4.02-1.793s-3 .598-4.13 1.793c-1.2 1.126-1.8 2.497-1.8 4.115zm27-4.326c-1.06-1.195-2.4-1.793-4.02-1.793h-.21c-1.63 0-2.97.598-4.03 1.793-1.13 1.126-1.69 2.497-1.69 4.115v.211c0 1.477.56 2.813 1.69 4.008 1.06 1.126 2.4 1.688 4.03 1.688h.21c1.62 0 2.96-.562 4.02-1.688 1.27-1.195 1.91-2.531 1.91-4.008v-.211c0-1.618-.64-2.989-1.91-4.115zm-43.84 4.326c0 1.477.57 2.813 1.7 4.008 1.06 1.126 2.4 1.688 4.02 1.688h.21c1.56 0 2.9-.562 4.03-1.688 1.27-1.195 1.9-2.531 1.9-4.008v-.211c0-1.618-.63-2.989-1.9-4.115-1.13-1.195-2.47-1.793-4.03-1.793h-.21c-1.62 0-2.96.598-4.02 1.793-1.13 1.126-1.7 2.497-1.7 4.115z" fill="url(#d)"/><path d="m1040.4 625.814c-16.1 0-24.14 7.877-24.14 23.631v274.29c0 15.754 8.04 23.631 24.14 23.631h516.18c15.25-.351 22.87-8.228 22.87-23.631v-274.29c0-15.332-7.62-23.209-22.87-23.631z" fill="url(#e)"/><path clip-rule="evenodd" d="m1035.34 425.377h3.58v19.373h-3.58v-1.633c-1.06 1.347-2.55 2.02-4.5 2.02-1.86 0-3.46-.706-4.78-2.117s-1.99-3.141-1.99-5.189.67-3.778 1.99-5.189c1.32-1.412 2.92-2.117 4.78-2.117 1.95 0 3.44.673 4.5 2.02zm-6.6 15.277c.73.719 1.66 1.079 2.77 1.079s2.02-.364 2.75-1.093c.72-.729 1.08-1.665 1.08-2.809s-.36-2.08-1.08-2.809c-.73-.729-1.64-1.093-2.75-1.093s-2.03.364-2.76 1.093-1.1 1.665-1.1 2.809.36 2.085 1.09 2.823zm20.72-10.129c1.51 0 2.77.507 3.76 1.522.99 1.014 1.48 2.417 1.48 4.206v8.497h-3.58v-8.054c0-.922-.25-1.628-.75-2.117s-1.16-.733-1.99-.733c-.93 0-1.67.286-2.22.858-.56.572-.84 1.429-.84 2.573v7.473h-3.57v-13.838h3.57v1.55c.87-1.292 2.25-1.937 4.14-1.937zm18.36-5.148h3.58v19.373h-3.58v-1.633c-1.05 1.347-2.55 2.02-4.49 2.02-1.87 0-3.46-.706-4.79-2.117-1.32-1.411-1.98-3.141-1.98-5.189s.66-3.778 1.98-5.189c1.33-1.412 2.92-2.117 4.79-2.117 1.94 0 3.44.673 4.49 2.02zm-6.6 15.277c.74.719 1.66 1.079 2.77 1.079s2.03-.364 2.75-1.093 1.08-1.665 1.08-2.809-.36-2.08-1.08-2.809-1.64-1.093-2.75-1.093-2.03.364-2.76 1.093-1.09 1.665-1.09 2.809.36 2.085 1.08 2.823zm26.1 4.483c-2.09 0-3.83-.701-5.22-2.103-1.4-1.402-2.1-3.137-2.1-5.203 0-2.067.7-3.801 2.1-5.203 1.39-1.402 3.13-2.103 5.22-2.103 1.35 0 2.58.322 3.69.968s1.96 1.513 2.53 2.602l-3.08 1.799c-.28-.572-.7-1.024-1.26-1.357-.57-.332-1.2-.498-1.9-.498-1.08 0-1.96.356-2.67 1.066-.7.71-1.05 1.619-1.05 2.726 0 1.088.35 1.988 1.05 2.698.71.711 1.59 1.066 2.67 1.066.72 0 1.36-.162 1.92-.485.57-.322.99-.77 1.27-1.342l3.1 1.771c-.61 1.089-1.47 1.961-2.58 2.616s-2.34.982-3.69.982zm19.31-2.103c-1.42 1.402-3.16 2.103-5.21 2.103-2.06 0-3.79-.706-5.2-2.117-1.42-1.411-2.13-3.141-2.13-5.189s.71-3.778 2.13-5.189c1.41-1.412 3.14-2.117 5.2-2.117 2.05 0 3.79.705 5.21 2.117 1.43 1.411 2.14 3.141 2.14 5.189s-.71 3.782-2.14 5.203zm-7.9-2.463c.72.719 1.61 1.079 2.69 1.079 1.07 0 1.97-.36 2.69-1.079.72-.72 1.08-1.633 1.08-2.74s-.36-2.02-1.08-2.74-1.62-1.079-2.69-1.079c-1.08 0-1.97.359-2.68 1.079s-1.07 1.633-1.07 2.74.35 2.02 1.06 2.74zm19.83-10.046c1.52 0 2.77.507 3.76 1.522.99 1.014 1.48 2.417 1.48 4.206v8.497h-3.57v-8.054c0-.922-.25-1.628-.75-2.117s-1.17-.733-2-.733c-.93 0-1.67.286-2.22.858-.56.572-.83 1.429-.83 2.573v7.473h-3.58v-13.838h3.58v1.55c.87-1.292 2.24-1.937 4.13-1.937zm15.79 3.819h-3.14v5.756c0 .48.12.83.36 1.052.24.221.59.346 1.06.374.46.027 1.03.023 1.72-.014v3.238c-2.46.276-4.2.046-5.21-.692-1-.738-1.51-2.057-1.51-3.958v-5.756h-2.41v-3.432h2.41v-2.795l3.58-1.08v3.875h3.14zm4.68 4.954c.48 1.734 1.79 2.601 3.92 2.601 1.36 0 2.4-.461 3.1-1.384l2.89 1.661c-1.37 1.974-3.39 2.961-6.05 2.961-2.29 0-4.13-.692-5.52-2.075-1.39-1.384-2.08-3.128-2.08-5.231 0-2.085.68-3.824 2.05-5.217s3.13-2.089 5.27-2.089c2.04 0 3.72.701 5.04 2.103s1.98 3.136 1.98 5.203c0 .461-.05.95-.14 1.467zm-.05-2.768h7.07c-.2-.941-.62-1.642-1.26-2.103s-1.36-.692-2.18-.692c-.96 0-1.75.244-2.38.733s-1.05 1.177-1.25 2.062zm24.72 8.22h-4.14l-2.99-4.207-3.03 4.207h-4.13l5.08-7.058-4.86-6.78h4.13l2.81 3.902 2.8-3.902h4.1l-4.85 6.753zm9.26-10.406h-3.13v5.756c0 .48.12.83.36 1.052.24.221.59.346 1.05.374.46.027 1.04.023 1.72-.014v3.238c-2.46.276-4.19.046-5.2-.692s-1.51-2.057-1.51-3.958v-5.756h-2.42v-3.432h2.42v-2.795l3.58-1.08v3.875h3.13z" fill="#bdd4e6" fill-rule="evenodd"/><path d="m1050.26 1292.5c1.91 1.97 4.31 2.96 7.21 2.96h448.31c2.76 0 5.16-.99 7.21-2.96 1.91-2.04 2.86-4.44 2.86-7.19 0-2.82-.95-5.21-2.86-7.19-2.05-1.97-4.45-2.95-7.21-2.95h-448.31c-2.9 0-5.3.98-7.21 2.95-1.98 1.98-2.97 4.37-2.97 7.19 0 2.75.99 5.15 2.97 7.19z" fill="url(#g)"/><path d="m1050.26 1241.66c1.91 1.97 4.31 2.96 7.21 2.96h401.34c2.89 0 5.33-.99 7.31-2.96 1.98-1.98 2.97-4.37 2.97-7.19s-.99-5.15-2.97-6.98c-1.98-2.11-4.42-3.17-7.31-3.17h-401.34c-2.9 0-5.3 1.06-7.21 3.17-1.98 1.83-2.97 4.16-2.97 6.98s.99 5.21 2.97 7.19z" fill="url(#h)"/><path d="m1050.58 1187.64c1.83 1.97 4.17 2.96 6.99 2.96h88.33 20.36 10.28 2.02 33.93 144.1 85.89c2.89 0 5.33-.99 7.31-2.96 1.98-1.98 2.97-4.37 2.97-7.19s-.99-5.22-2.97-7.19-4.42-2.96-7.31-2.96c-3.04 0-31.67 0-85.89 0-65.39 0-113.42 0-144.1 0h-33.93c-.64 0-1.31 0-2.02 0-3.39 0-6.82 0-10.28 0-6.65 0-13.43 0-20.36 0-27.57 0-57.01 0-88.33 0-2.82 0-5.16.99-6.99 2.96-2.13 1.97-3.19 4.37-3.19 7.19s1.06 5.21 3.19 7.19z" fill="url(#i)"/><path d="m1050.58 559.255c-2.13 1.973-3.19 4.369-3.19 7.188 0 2.748 1.06 5.144 3.19 7.188 1.83 1.973 4.17 2.96 6.99 2.96h427.96c2.82 0 5.3-.987 7.42-2.96 1.84-2.044 2.76-4.44 2.76-7.188 0-2.819-.92-5.215-2.76-7.188-2.12-1.973-4.6-2.96-7.42-2.96h-427.96c-2.82 0-5.16.987-6.99 2.96z" fill="url(#j)"/><path d="m1050.58 522.785c1.83 1.974 4.17 2.96 6.99 2.96h421.81c2.89 0 5.37-.986 7.42-2.96 1.91-1.973 2.86-4.369 2.86-7.188s-.95-5.144-2.86-6.977c-2.05-2.114-4.53-3.171-7.42-3.171h-421.81c-2.82 0-5.16 1.057-6.99 3.171-2.13 1.833-3.19 4.158-3.19 6.977s1.06 5.215 3.19 7.188z" fill="url(#k)"/><path clip-rule="evenodd" d="m1053.5 1044h74.94c2.76 0 5 2.24 5 5v73c0 2.76-2.24 5-5 5h-74.94c-2.76 0-5-2.24-5-5v-73c0-2.76 2.24-5 5-5zm54.85 54.58-3.96 3.68 9.58 9.35h-9.46v5.16h18.46v-18.04h-5.27v9.24zm-35.3 0-9.34 9.39v-9.24h-5.28v18.04h18.46v-5.16h-9.45l9.57-9.35zm0-26.72 3.96-3.69-9.57-9.35h9.45v-5.16h-18.46v18.04h5.28v-9.24zm35.3 0 9.35-9.4v9.24h5.27v-18.04h-18.46v5.16h9.46l-9.58 9.35z" fill="#c9d3db" fill-rule="evenodd"/><path clip-rule="evenodd" d="m1159.29 1086.69c0-4.14.97-7.44 2.91-9.9 1.93-2.45 4.58-3.68 7.94-3.68 2.69 0 4.92.96 6.68 2.9v-13.57h7.41v37.74h-6.67l-.36-2.82c-1.84 2.21-4.21 3.31-7.11 3.31-3.26 0-5.87-1.23-7.84-3.7-1.97-2.46-2.96-5.89-2.96-10.28zm7.4.52c0 2.49.45 4.4 1.35 5.72.91 1.33 2.22 1.99 3.94 1.99 2.29 0 3.9-.92 4.84-2.77v-10.49c-.93-1.85-2.52-2.78-4.79-2.78-3.56 0-5.34 2.78-5.34 8.33zm39.47-6.95c-1.01-.13-1.89-.2-2.66-.2-2.8 0-4.63.91-5.5 2.73v17.39h-7.39v-26.58h6.98l.21 3.17c1.48-2.44 3.53-3.66 6.16-3.66.82 0 1.59.1 2.3.32zm2.13 6.38c0-2.63.53-4.98 1.58-7.05 1.06-2.06 2.58-3.66 4.57-4.79s4.29-1.69 6.92-1.69c3.73 0 6.78 1.09 9.14 3.29 2.36 2.19 3.68 5.17 3.95 8.94l.06 1.82c0 4.08-1.19 7.35-3.56 9.81-2.37 2.47-5.55 3.7-9.54 3.7s-7.17-1.23-9.55-3.68c-2.38-2.46-3.57-5.8-3.57-10.03zm7.39.52c0 2.52.49 4.45 1.48 5.79.99 1.33 2.41 2 4.25 2 1.79 0 3.19-.66 4.19-1.98 1.01-1.32 1.51-3.43 1.51-6.33 0-2.47-.5-4.39-1.51-5.75-1-1.35-2.42-2.03-4.24-2.03-1.81 0-3.21.67-4.2 2.02s-1.48 3.45-1.48 6.28zm48.94-.02c0 4.09-.97 7.37-2.91 9.83-1.93 2.47-4.54 3.7-7.84 3.7-2.79 0-5.05-.93-6.77-2.8v12.53h-7.4v-36.8h6.86l.25 2.6c1.8-2.06 4.13-3.09 7.01-3.09 3.41 0 6.07 1.21 7.96 3.63 1.89 2.43 2.84 5.77 2.84 10.03zm-7.39-.52c0-2.47-.46-4.38-1.37-5.73-.92-1.34-2.24-2.01-3.98-2.01-2.32 0-3.91.85-4.78 2.56v10.88c.9 1.75 2.51 2.63 4.83 2.63 3.53 0 5.3-2.78 5.3-8.33zm37.52.52c0 4.09-.96 7.37-2.9 9.83-1.93 2.47-4.55 3.7-7.84 3.7-2.8 0-5.05-.93-6.78-2.8v12.53h-7.39v-36.8h6.86l.25 2.6c1.79-2.06 4.13-3.09 7.01-3.09 3.41 0 6.06 1.21 7.96 3.63 1.89 2.43 2.83 5.77 2.83 10.03zm-7.39-.52c0-2.47-.45-4.38-1.37-5.73-.91-1.34-2.23-2.01-3.97-2.01-2.32 0-3.92.85-4.79 2.56v10.88c.91 1.75 2.52 2.63 4.84 2.63 3.53 0 5.29-2.78 5.29-8.33zm28.66 13.56c-.35-.64-.59-1.43-.75-2.38-1.79 1.91-4.11 2.87-6.98 2.87-2.71 0-4.96-.75-6.74-2.26s-2.67-3.41-2.67-5.7c0-2.82 1.09-4.98 3.26-6.48 2.17-1.51 5.32-2.27 9.43-2.29h3.4v-1.52c0-1.23-.33-2.21-.99-2.95-.65-.74-1.69-1.11-3.11-1.11-1.24 0-2.22.29-2.92.86-.71.58-1.07 1.36-1.07 2.36h-7.39c0-1.54.5-2.96 1.49-4.27.98-1.31 2.38-2.34 4.19-3.09 1.81-.74 3.84-1.11 6.09-1.11 3.41 0 6.12.82 8.12 2.47 2 1.64 3 3.96 3 6.94v11.52c.02 2.52.39 4.43 1.1 5.72v.42zm-6.12-4.94c1.09 0 2.1-.23 3.02-.7.92-.46 1.6-1.09 2.05-1.88v-4.57h-2.77c-3.7 0-5.67 1.23-5.9 3.69l-.03.42c0 .88.32 1.61.97 2.18.65.58 1.54.86 2.66.86zm43.75-8.1c0 4.25-.95 7.57-2.84 9.96-1.89 2.38-4.54 3.57-7.93 3.57-3 0-5.4-1.1-7.19-3.31l-.33 2.82h-6.65v-37.74h7.39v13.54c1.71-1.91 3.95-2.87 6.73-2.87 3.37 0 6.02 1.19 7.94 3.57s2.88 5.74 2.88 10.06zm-7.39-.52c0-2.69-.45-4.65-1.33-5.88-.89-1.24-2.21-1.86-3.97-1.86-2.35 0-3.97.93-4.86 2.78v10.49c.9 1.86 2.54 2.8 4.91 2.8 2.39 0 3.96-1.13 4.71-3.39.36-1.08.54-2.73.54-4.94zm20.39 13.56h-7.42v-37.74h7.42zm19.47.49c-4.06 0-7.36-1.19-9.91-3.59-2.55-2.39-3.83-5.57-3.83-9.55v-.69c0-2.67.54-5.06 1.61-7.16 1.08-2.11 2.6-3.73 4.57-4.87 1.97-1.13 4.22-1.7 6.74-1.7 3.79 0 6.76 1.14 8.94 3.44 2.17 2.29 3.26 5.54 3.26 9.75v2.9h-17.62c.24 1.73.96 3.13 2.16 4.18 1.2 1.04 2.72 1.57 4.56 1.57 2.85 0 5.08-.99 6.68-2.98l3.63 3.91c-1.11 1.51-2.61 2.68-4.5 3.53-1.89.84-3.99 1.26-6.29 1.26zm-.85-21.81c-1.46 0-2.65.47-3.56 1.42-.92.95-1.5 2.31-1.76 4.08h10.29v-.57c-.04-1.57-.48-2.78-1.33-3.64-.86-.86-2.07-1.29-3.64-1.29z" fill="#c9d3db" fill-rule="evenodd"/><g filter="url(#a)" opacity=".227572"><path d="m1272.03 615.567-512.688-17.904c-10.487-.366-19.285 7.838-19.652 18.325l-9.527 272.834c-.366 10.487 7.838 19.285 18.325 19.652l512.692 17.903c10.48.366 19.28-7.838 19.65-18.325l9.52-272.834c.37-10.487-7.83-19.285-18.32-19.651z" fill="#000" fill-opacity=".1"/></g><g filter="url(#b)" opacity=".05"><path clip-rule="evenodd" d="m474.716 704.344c-8.393 7.266-19.297 11.656-31.216 11.656-26.51 0-48-21.714-48-48.5 0-12.387 4.596-23.689 12.158-32.26l-23.013-92.67c-16.201-2.596-28.579-16.637-28.579-33.57 0-2.961.387-5.909 1.151-8.77-14.42-11.333-23.717-29.169-23.717-49.23 0-32.569 24.505-59.273 55.651-61.804 5.641-17.263 10.233-29.288 13.775-36.076 9.8-18.784 30.875-32.294 63.222-40.53 2.742-.698 5.56-1.051 8.389-1.051h83.896c8.301-9.843 24.537-16.925 43.737-18.297v-70.407c-4.004-2.129-6.729-6.336-6.729-11.177 0-6.991 5.682-12.658 12.691-12.658 7.008 0 12.69 5.667 12.69 12.658 0 4.266-2.116 8.039-5.358 10.332v71.227c19.36 1.307 35.75 8.416 44.103 18.322h93.933c32.585 0 59 26.415 59 59v138.461c0 18.778-15.222 34-34 34h-345.431l19.067 76.783c19.998 3.671 35.678 19.862 38.798 40.245l131.915 34.498c2.648.692 5.032 1.884 7.079 3.448 8.807-9.81 21.541-15.974 35.704-15.974 19.511 0 36.311 11.699 43.868 28.515-6.528-4.38-15.456-6.535-24.951-5.361-17.825 2.205-30.897 15.307-29.197 29.265 1.7 13.957 17.528 23.486 35.353 21.281 1.609-.199 3.18-.487 4.705-.856l-.491 14.147c-8.113 6.277-18.268 10.009-29.287 10.009-23.195 0-42.558-16.532-47.116-38.541-2.469.316-5.038.174-7.593-.495z" fill="url(#l)" fill-rule="evenodd"/></g><path clip-rule="evenodd" d="m791.69 394.136c-.159.043-.318.089-.477.137-10.047 3.026-15.739 13.625-12.712 23.672l49.845 165.475c2.971 9.862 13.259 15.561 23.196 12.849l3.811-1.04c.159-.044.318-.089.477-.137 10.047-3.026 15.739-13.625 12.712-23.673l-49.845-165.474c-2.971-9.862-13.259-15.562-23.196-12.849z" fill="url(#n)" fill-rule="evenodd" stroke="#d7dce1" stroke-width="3"/><path d="m759 464c38.384 0 69.5-32.236 69.5-72 0-39.765-31.116-72-69.5-72s-69.5 32.235-69.5 72c0 39.764 31.116 72 69.5 72z" fill="#fff" stroke="#d7dce1" stroke-width="3"/><path clip-rule="evenodd" d="m689 689.5-3.583-9.401c-1.105.23-2.226.415-3.361.555-17.652 2.175-33.419-7.283-35.129-21.276-1.71-13.991 11.31-26.996 28.962-29.171 7.842-.966 19.744-1.431 19.744-1.431-7.832-14.467-20.983-18.776-37.823-18.776-25.023 0-45.31 20.37-45.31 45.5s20.287 45.5 45.31 45.5c9.953 0 23.408-5.626 31.19-11.5z" fill="url(#o)" fill-rule="evenodd" stroke="#d7dce1" stroke-width="3"/><path d="m1220.75 772.992 6.82-196.782c.61-14.679-6.72-22.248-21.98-22.709l-487.837-16.588c-15.19-.592-23.087 6.484-23.689 21.229l-6.826 196.682z" fill="#fad77b"/><path d="m1218.32 840.628 1.04-29.91 1.14-39.615-540.788-19.103-2.14 40.615-1.037 30.008c-.621 14.693 6.944 22.302 22.695 22.826l494.53 16.53c15.76.459 23.94-6.658 24.56-21.351zm-383.109-21.07c-3.244-.13-6.558-.26-9.941-.39-6.558-.196-13.22-.423-19.985-.684-26.923-.78-55.642-1.691-86.155-2.732-2.83-.131-5.074-1.107-6.731-2.928-1.933-1.887-2.899-4.165-2.899-6.832.138-2.603 1.277-4.75 3.417-6.442 1.726-1.822 3.97-2.668 6.731-2.537 30.513.976 59.266 1.886 86.258 2.732 6.697.196 13.324.423 19.882.684 3.383.065 6.696.162 9.941.292.759 0 1.415.065 1.967.196l33.24.975c103.137 3.319 156.814 5.108 161.024 5.368 2.76 0 5.11.944 7.04 2.831 1.79 1.822 2.62 4.066 2.49 6.734 0 2.603-1.01 4.815-3.01 6.637-1.93 1.692-4.28 2.538-7.04 2.538-4.28-.196-57.988-1.952-161.125-5.271l-33.136-1.073c-.622-.065-1.277-.098-1.968-.098z" fill="url(#p)"/><path d="m837.269 810.808c3.279.131 6.491.263 9.636.395.67 0 1.305.033 1.908.098l32.121 1.086c99.976 3.357 152.036 5.135 156.186 5.332 2.68 0 4.95-.856 6.83-2.567 1.94-1.843 2.91-4.081 2.91-6.714.13-2.699-.67-4.97-2.41-6.813-1.87-1.909-4.15-2.863-6.83-2.863-4.08-.263-56.108-2.074-156.084-5.431l-32.222-.987c-.535-.132-1.171-.198-1.907-.198-3.145-.131-6.357-.23-9.636-.296-6.357-.263-12.782-.493-19.273-.691-26.165-.856-54.036-1.777-83.615-2.764-2.676-.132-4.851.724-6.524 2.567-2.075 1.711-3.179 3.883-3.313 6.516 0 2.699.937 5.003 2.811 6.912 1.606 1.843 3.781 2.83 6.525 2.962 29.578 1.053 57.416 1.975 83.514 2.765 6.558.263 13.016.493 19.373.691z" fill="#c4d4e0"/><path d="m1212.18 772.499 6.83-196.782c.6-14.745-6.73-22.347-21.99-22.808l-487.833-16.588c-15.191-.526-23.087 6.583-23.689 21.327l-6.826 196.683z" fill="#fee08e"/><path d="m680.223 752.883 6.773-195.174c0-.001 0-.003.001-.004.291-7.127 2.332-12.14 5.878-15.332 3.555-3.201 8.886-4.808 16.26-4.553h.001l487.834 16.588h.01c7.41.224 12.61 2.175 15.9 5.589 3.28 3.405 4.92 8.529 4.63 15.659v.009l-6.78 195.283z" fill="url(#q)" stroke="url(#r)" stroke-width="3"/><path d="m1210.07 832.234 1.01-30.016 1.1-29.719-533.508-18.168-1.104 29.72-1.004 30.016c-.602 14.744 6.725 22.413 21.983 23.005l487.833 16.588c15.19.461 23.09-6.681 23.69-21.426zm-346.702-20.34-31.921-1.086c-.602-.131-1.238-.197-1.907-.197-3.212-.066-6.424-.165-9.636-.296-6.357-.264-12.815-.494-19.373-.692-26.098-.789-53.97-1.711-83.615-2.764-2.677-.132-4.885-1.119-6.625-2.962-1.874-1.975-2.81-4.279-2.81-6.912.133-2.633 1.238-4.805 3.312-6.516 1.74-1.844 3.982-2.699 6.725-2.568 29.578.988 57.417 1.876 83.515 2.666 6.558.264 13.016.494 19.373.691 3.279.132 6.491.264 9.636.395.669 0 1.305.066 1.907.198l32.021.987c100.043 3.357 152.14 5.135 156.29 5.332 2.68 0 4.95.987 6.82 2.962 1.74 1.843 2.55 4.081 2.41 6.714 0 2.699-.97 4.97-2.91 6.813-1.87 1.711-4.18 2.567-6.92 2.567-4.09-.263-56.182-2.04-156.292-5.332z" fill="#fff"/><path d="m680.17 754.38-1.17 28.62-1 31.5c-.603 14.745 8.743 19.908 24 20.5" stroke="url(#s)" stroke-width="3"/><path d="m831.447 810.808 31.921 1.086c100.11 3.292 152.202 5.069 156.292 5.332 2.74 0 5.05-.856 6.92-2.567 1.94-1.843 2.91-4.114 2.91-6.813.14-2.633-.67-4.871-2.41-6.714-1.87-1.975-4.14-2.962-6.82-2.962-4.15-.198-56.247-1.975-156.29-5.332l-32.021-.987c-.602-.132-1.238-.198-1.907-.198-3.145-.131-6.357-.263-9.636-.395-6.357-.197-12.815-.427-19.373-.691-26.098-.79-53.937-1.678-83.515-2.666-2.743-.131-4.985.724-6.725 2.568-2.075 1.711-3.179 3.883-3.313 6.516 0 2.633.937 4.937 2.811 6.912 1.74 1.843 3.948 2.83 6.625 2.962 29.645 1.053 57.517 1.974 83.615 2.764 6.558.198 13.016.428 19.373.691 3.212.132 6.424.231 9.636.297.669 0 1.305.066 1.907.197z" fill="url(#t)"/><path d="m861.82 656.755-12.827 11.961-3.418-3.665 6.571-6.127-22.286-.78.175-5.007 22.286.779-6.128-6.572 3.664-3.417zm-86.722-3.032 12.827-11.962 3.418 3.666-6.571 6.127 22.285.779-.174 5.008-22.286-.779 6.128 6.571-3.665 3.418zm56.836-29.017-3.665 3.418-6.128-6.572-.777 22.286-5.008-.175.777-22.286-6.571 6.128-3.417-3.666 12.827-11.961zm-11.372 42.109-.777 22.285 6.571-6.127 3.418 3.665-12.827 11.962-11.963-12.829 3.665-3.417 6.128 6.571.778-22.285z" fill="#f5a623"/><path clip-rule="evenodd" d="m884.005 658.599c.144-4.125 1.176-7.378 3.097-9.759 1.92-2.381 4.472-3.516 7.657-3.405 2.554.089 4.63 1.125 6.228 3.106l.472-13.498 7.032.246-1.312 37.56-6.329-.221-.241-2.824c-1.823 2.14-4.108 3.162-6.857 3.066-3.087-.108-5.522-1.421-7.303-3.94-1.782-2.518-2.596-5.962-2.444-10.331zm6.99.758c-.086 2.478.276 4.392 1.086 5.743.811 1.35 2.033 2.054 3.666 2.111 2.166.075 3.726-.792 4.679-2.603l.365-10.442c-.809-1.873-2.288-2.847-4.438-2.922-3.379-.118-5.165 2.586-5.358 8.113zm37.663-5.614c-.949-.163-1.787-.258-2.515-.283-2.651-.093-4.42.751-5.308 2.532l-.605 17.313-7.008-.245.924-26.458 6.62.231.084 3.161c1.491-2.38 3.482-3.526 5.971-3.44.776.028 1.5.159 2.172.395zm17.766 20.477c-.301-.647-.507-1.446-.62-2.397-1.764 1.848-4.004 2.725-6.72 2.63-2.57-.089-4.674-.914-6.311-2.473-1.637-1.558-2.415-3.479-2.336-5.761.098-2.804 1.204-4.92 3.318-6.348 2.113-1.428 5.118-2.082 9.015-1.962l3.225.112.053-1.516c.042-1.223-.235-2.212-.831-2.967-.597-.755-1.566-1.156-2.908-1.203-1.18-.041-2.116.212-2.807.759-.69.547-1.053 1.318-1.088 2.312l-7.008-.245c.054-1.532.572-2.934 1.555-4.205.983-1.272 2.345-2.249 4.084-2.93 1.74-.682 3.676-.986 5.81-.912 3.233.113 5.771 1.022 7.613 2.727 1.843 1.705 2.712 4.04 2.608 7.008l-.4 11.468c-.072 2.512.21 4.423.844 5.734l-.015.416zm-5.623-5.118c1.034.036 1.996-.163 2.885-.597.89-.434 1.558-1.035 2.006-1.803l.158-4.548-2.618-.091c-3.508-.123-5.418 1.034-5.73 3.472l-.039.415c-.03.88.251 1.616.846 2.208.594.592 1.425.907 2.492.944zm17.107-7.923c.142-4.059 1.213-7.294 3.216-9.705 2.002-2.411 4.628-3.56 7.877-3.447 2.877.101 5.082 1.174 6.613 3.218l.378-2.484 6.353.222-.893 25.579c-.081 2.315-.673 4.31-1.775 5.985-1.103 1.676-2.615 2.928-4.538 3.759s-4.153 1.202-6.691 1.113c-1.924-.067-3.786-.52-5.585-1.358-1.8-.838-3.147-1.885-4.042-3.14l3.254-4.196c1.677 2.034 3.76 3.094 6.25 3.181 1.859.065 3.323-.386 4.393-1.352 1.069-.967 1.636-2.371 1.701-4.213l.049-1.419c-1.681 1.786-3.839 2.633-6.474 2.541-3.152-.11-5.659-1.442-7.52-3.997-1.861-2.554-2.72-5.885-2.576-9.993zm6.99.759c-.084 2.396.327 4.292 1.234 5.686.906 1.395 2.191 2.121 3.857 2.179 2.133.075 3.689-.679 4.667-2.261l.389-11.126c-.882-1.647-2.365-2.506-4.45-2.579-1.682-.059-3.027.588-4.038 1.94-1.01 1.352-1.563 3.406-1.659 6.161zm21.968.253c.142-4.06 1.214-7.295 3.216-9.706s4.628-3.56 7.877-3.446c2.881.1 5.081 1.173 6.611 3.218l.38-2.485 6.35.222-.89 25.579c-.08 2.315-.67 4.31-1.77 5.985-1.11 1.676-2.62 2.929-4.54 3.759-1.93.831-4.156 1.202-6.694 1.113-1.923-.067-3.785-.52-5.585-1.358s-3.147-1.885-4.042-3.14l3.254-4.196c1.677 2.034 3.761 3.094 6.25 3.181 1.859.065 3.327-.386 4.397-1.352 1.07-.967 1.63-2.371 1.7-4.213l.05-1.418c-1.68 1.785-3.842 2.632-6.477 2.54-3.153-.11-5.659-1.442-7.52-3.996-1.862-2.554-2.72-5.886-2.577-9.994zm6.99.758c-.083 2.396.328 4.292 1.234 5.687.906 1.394 2.192 2.12 3.857 2.179 2.133.074 3.693-.68 4.663-2.261l.39-11.127c-.88-1.646-2.36-2.506-4.447-2.579-1.681-.059-3.027.588-4.037 1.94s-1.564 3.406-1.66 6.161zm37.724 14.245c-.3-.648-.51-1.446-.62-2.397-1.77 1.848-4.01 2.725-6.72 2.63-2.57-.09-4.68-.914-6.31-2.473-1.64-1.559-2.42-3.479-2.34-5.762.1-2.804 1.2-4.92 3.32-6.348 2.11-1.427 5.12-2.081 9.01-1.962l3.23.113.05-1.516c.04-1.223-.23-2.212-.83-2.967-.6-.756-1.57-1.157-2.91-1.204-1.18-.041-2.11.212-2.8.759-.69.548-1.06 1.318-1.09 2.313l-7.01-.245c.05-1.532.57-2.934 1.56-4.206.98-1.271 2.34-2.248 4.08-2.93s3.68-.985 5.81-.911c3.23.113 5.77 1.022 7.61 2.727 1.84 1.704 2.71 4.04 2.61 7.007l-.4 11.469c-.07 2.511.21 4.423.84 5.734l-.01.416zm-5.63-5.118c1.04.036 2-.163 2.89-.597s1.56-1.035 2.01-1.803l.15-4.548-2.61-.092c-3.51-.122-5.42 1.035-5.73 3.473l-.04.414c-.03.881.25 1.617.84 2.209.6.592 1.43.907 2.49.944zm41.76-6.622c-.15 4.239-1.16 7.513-3.04 9.822-1.88 2.31-4.43 3.408-7.64 3.296-2.85-.099-5.08-1.279-6.7-3.539l-.41 2.801-6.31-.22 1.31-37.561 7.01.245-.47 13.474c1.68-1.851 3.84-2.731 6.48-2.639 3.2.112 5.67 1.386 7.4 3.821 1.74 2.436 2.53 5.805 2.38 10.109zm-6.99-.758c.09-2.673-.26-4.64-1.06-5.901-.8-1.26-2.03-1.919-3.69-1.977-2.23-.078-3.8.79-4.71 2.602l-.36 10.442c.79 1.889 2.31 2.872 4.56 2.95 2.26.079 3.79-.993 4.58-3.218.37-1.064.6-2.697.68-4.898zm18.86 14.174-7.03-.246 1.31-37.561 7.03.246zm18.44 1.133c-3.85-.134-6.94-1.433-9.27-3.898-2.34-2.465-3.43-5.678-3.3-9.639l.03-.685c.09-2.657.68-5.015 1.78-7.075 1.09-2.059 2.59-3.623 4.49-4.69 1.91-1.068 4.06-1.56 6.45-1.477 3.59.126 6.38 1.365 8.36 3.72 1.98 2.354 2.9 5.626 2.75 9.816l-.1 2.885-16.71-.583c.17 1.736.8 3.145 1.91 4.229 1.1 1.083 2.52 1.655 4.27 1.716 2.7.094 4.84-.819 6.43-2.738l3.31 4.008c-1.1 1.463-2.57 2.583-4.39 3.36-1.83.777-3.83 1.128-6.01 1.051zm-.04-21.742c-1.39-.049-2.54.384-3.43 1.3-.9.915-1.5 2.249-1.81 4.001l9.75.34.02-.562c.02-1.566-.36-2.791-1.13-3.675-.78-.884-1.92-1.353-3.4-1.404z" fill="#f5a623" fill-rule="evenodd"/><path d="m603.5 300c29.823 0 54-14.327 54-32s-24.177-32-54-32-54 14.327-54 32 24.177 32 54 32z" fill="#f7fafd" stroke="#d7dce1" stroke-width="3"/><path clip-rule="evenodd" d="m608.843 239.956v-72.418l.421-.299c2.932-2.078 4.708-5.437 4.708-9.096 0-6.154-4.992-11.143-11.151-11.143-6.158 0-11.15 4.989-11.15 11.143 0 4.162 2.302 7.916 5.912 9.839l.53.283v71.691c0 2.485 2.015 4.5 4.5 4.5h1.73c2.485 0 4.5-2.015 4.5-4.5zm-133.746 15.003c-2.763 0-5.516.347-8.193 1.033-30.597 7.842-50.465 20.631-59.676 38.317-8.298 15.934-22.724 62.372-43.223 139.182-.74 2.776-1.115 5.636-1.115 8.509 0 18.225 14.774 33 33 33h368.61c18.225 0 33-14.775 33-33v-129.041c0-32.032-25.968-58-58-58z" fill="url(#u)" fill-rule="evenodd" stroke="#d7dce1" stroke-width="3"/><path d="m733.5 310h-212c-11.046 0-20 8.954-20 20v79c0 11.046 8.954 20 20 20h212c11.046 0 20-8.954 20-20v-79c0-11.046-8.954-20-20-20z" fill="url(#v)"/><g mask="url(#A)"><path d="m574 401c10.217 0 18.5-14.327 18.5-32s-8.283-32-18.5-32-18.5 14.327-18.5 32 8.283 32 18.5 32z" fill="#689fff"/><g fill="#fff"><path d="m583.5 406c11.598 0 21-10.074 21-22.5s-9.402-22.5-21-22.5-21 10.074-21 22.5 9.402 22.5 21 22.5z" fill-opacity=".08"/><path d="m577.936 373.831c4.469-.078 8.015-4.549 7.92-9.986s-3.795-9.782-8.264-9.704-8.015 4.549-7.92 9.986c.095 5.438 3.795 9.782 8.264 9.704z" fill-opacity=".177315"/></g></g><g mask="url(#B)"><path d="m674 401c10.217 0 18.5-14.327 18.5-32s-8.283-32-18.5-32-18.5 14.327-18.5 32 8.283 32 18.5 32z" fill="#689fff"/><g fill="#fff"><path d="m683.5 406c11.598 0 21-10.074 21-22.5s-9.402-22.5-21-22.5-21 10.074-21 22.5 9.402 22.5 21 22.5z" fill-opacity=".08"/><path d="m676.943 373.556c4.472-.078 8.021-4.551 7.926-9.99s-3.797-9.785-8.27-9.707-8.022 4.55-7.927 9.989c.095 5.44 3.798 9.786 8.271 9.708z" fill-opacity=".15"/></g></g><g stroke="#d7dce1" stroke-width="3"><path clip-rule="evenodd" d="m394.104 415.037c-10.165 2.546-16.35 12.839-13.825 23.008l36.901 148.654c.005.019.005.019.009.039 2.549 10.179 12.868 16.364 23.047 13.815l4.787-1.199c10.165-2.546 16.35-12.839 13.825-23.009l-36.901-148.654c-.004-.019-.004-.019-.009-.038-2.549-10.179-12.868-16.364-23.047-13.815z" fill="url(#w)" fill-rule="evenodd"/><path clip-rule="evenodd" d="m450.668 603.33c-.014.052-.014.052-.028.105-2.656 10.151 3.421 20.534 13.573 23.19l140.573 36.776c10.111 2.646 20.46-3.372 23.163-13.467l1.301-4.861c.014-.053.014-.053.028-.106 2.656-10.151-3.421-20.534-13.572-23.19l-140.574-36.776c-10.111-2.646-20.459 3.372-23.162 13.467z" fill="url(#x)" fill-rule="evenodd"/><path d="m444.5 642c25.405 0 46-20.819 46-46.5s-20.595-46.5-46-46.5-46 20.819-46 46.5 20.595 46.5 46 46.5z" fill="#fff"/><path d="m444.5 614.1c9.527 0 17.25-7.807 17.25-17.437 0-9.631-7.723-17.438-17.25-17.438s-17.25 7.807-17.25 17.438c0 9.63 7.723 17.437 17.25 17.437z" fill="#f7fafd"/><path d="m397.5 452c32.033 0 58-26.639 58-59.5s-25.967-59.5-58-59.5-58 26.639-58 59.5 25.967 59.5 58 59.5z" fill="#fff"/><path d="m396.34 413.874c12.172 0 22.04-10.087 22.04-22.529 0-12.443-9.868-22.53-22.04-22.53-12.173 0-22.04 10.087-22.04 22.53 0 12.442 9.867 22.529 22.04 22.529z" fill="url(#y)"/></g><path d="m603.5 198c20.435 0 37-16.789 37-37.5s-16.565-37.5-37-37.5-37 16.789-37 37.5 16.565 37.5 37 37.5z" fill="#74a7ff" fill-opacity=".5"/><path d="m604 215c30.1 0 54.5-24.624 54.5-55s-24.4-55-54.5-55-54.5 24.624-54.5 55 24.4 55 54.5 55z" fill="#74a7ff" fill-opacity=".15"/><path d="m602.5 178c9.941 0 18-8.283 18-18.5s-8.059-18.5-18-18.5-18 8.283-18 18.5 8.059 18.5 18 18.5z" fill="#6483f8"/><g filter="url(#c)" opacity=".8"><path d="m701.5 658c0 6.075-2.91 11-6.5 11s-6.5-4.925-6.5-11 2.91-11 6.5-11 6.5 4.925 6.5 11z" fill="#f5a623" fill-opacity=".01"/></g><path d="m612.771 664.884c8.702 2.446 18.272-4.516 21.374-15.55 3.101-11.034-1.439-21.962-10.141-24.409-8.703-2.446-18.272 4.516-21.374 15.55s1.438 21.962 10.141 24.409z" fill="#f7fafd" stroke="#d7dce1" stroke-width="3"/><path d="m698.5 669.5 2.677-15.714c-69.661-31.597-81.177-15.786-81.177-15.786l-3.5 14c6.374 29.186 82 17.5 82 17.5z" fill="#fff" stroke="#d7dce1" stroke-width="3"/></g></svg>