<?xml version="1.0" encoding="UTF-8"?>
<svg width="1193px" height="563px" viewBox="0 0 1193 563" version="1.1" xmlns="http://www.w3.org/2000/svg" xmlns:xlink="http://www.w3.org/1999/xlink">
    <!-- Generator: Sketch 52.4 (67378) - http://www.bohemiancoding.com/sketch -->
    <title>draggable</title>
    <desc>Created with Sketch.</desc>
    <g id="Page-1" stroke="none" stroke-width="1" fill="none" fill-rule="evenodd">
        <g id="Alternative-logo" transform="translate(244.000000, 209.000000)" fill="#000000">
            <path d="M12,0 L134,0 C140.627417,-1.21743675e-15 146,5.372583 146,12 L146,134 C146,140.627417 140.627417,146 134,146 L12,146 C5.372583,146 8.11624501e-16,140.627417 0,134 L0,12 C-8.11624501e-16,5.372583 5.372583,1.21743675e-15 12,0 Z M102.871709,96 L96.0705356,102.480192 L112.524758,118.934354 L96.2704179,118.934354 L96.2704179,128 L128,128 L128,96.2703246 L118.934405,96.2703246 L118.934405,112.524654 L102.871709,96 Z M42.1988262,96 L26.1361307,112.524654 L26.1361307,96.2703246 L17.0705356,96.2703246 L17.0705356,128 L48.8001177,128 L48.8001177,118.934354 L32.5457779,118.934354 L49,102.480192 L42.1988262,96 Z M42.1988262,49 L49,42.5198084 L32.5457779,26.065646 L48.8001177,26.065646 L48.8001177,17 L17.0705356,17 L17.0705356,48.7296754 L26.1361307,48.7296754 L26.1361307,32.4753458 L42.1988262,49 Z M102.871709,49 L118.934405,32.4753458 L118.934405,48.7296754 L128,48.7296754 L128,17 L96.2704179,17 L96.2704179,26.065646 L112.524758,26.065646 L96.0705356,42.5198084 L102.871709,49 Z" id="Rectangle-2"></path>
            <text id="droppable" font-family="Roboto-Bold, Roboto" font-size="90" font-weight="bold" letter-spacing="1.108638">
                <tspan x="187.5" y="98">droppable</tspan>
            </text>
        </g>
    </g>
</svg>